<svg xmlns="http://www.w3.org/2000/svg" width="216" height="166" fill="none"><g clip-path="url(#a)"><g filter="url(#b)"><path fill="#fff" d="M194 18H22a4 4 0 0 0-4 4v122a4 4 0 0 0 4 4h172a4 4 0 0 0 4-4V22a4 4 0 0 0-4-4z"/></g><path fill="#F0F2FF" d="M194 18H22a4 4 0 0 0-4 4v82h180V22a4 4 0 0 0-4-4z"/><path fill="#4188FF" d="M65.57 18H22a4 4 0 0 0-4 4v82h82L83.361 84.494c-3.865-4.532-2.936-11.418 1.992-14.764l7.615-5.169c8.636-5.862 9.437-18.29 1.625-25.213L74.19 21.27A13 13 0 0 0 65.57 18z"/><path stroke="#005BD3" stroke-linecap="round" stroke-linejoin="round" stroke-width="2" d="M30 31.774c1.763 0 1.861-1.774 3.918-1.774 2.106 0 2.106 2 4.164 2 2.057 0 2.155-1.774 4.114-1.774S44.106 32 46.114 32s2.155-1.774 4.066-1.774C52.09 30.226 52.776 32 54 32"/><path fill="#F0F1F2" d="M76 111H40a2 2 0 0 0-2 2v35h40v-35a2 2 0 0 0-2-2zm50 0H90a2 2 0 0 0-2 2v35h40v-35a2 2 0 0 0-2-2zm50 0h-36a2 2 0 0 0-2 2v35h40v-35a2 2 0 0 0-2-2z"/><g filter="url(#c)"><rect width="100" height="38" x="8" y="81" fill="#fff" rx="19"/></g><circle cx="28.319" cy="99.857" r="8.319" fill="#00735C"/><circle cx="47.584" cy="99.857" r="8.319" fill="#BAC7FF"/><circle cx="67.724" cy="99.857" r="8.319" fill="#0071E9"/><circle cx="86.989" cy="99.857" r="8.319" fill="#3C8B96"/><g filter="url(#d)"><path fill="#D9942D" d="m186.951 102.971-57.268-37.019c-3.361-2.172-7.863-.941-9.651 2.638a6.713 6.713 0 0 0 2.943 8.975l60.682 31.109a3.298 3.298 0 0 0 3.294-5.703z"/><path fill="#231F20" d="M122.135 72.215a10.783 10.783 0 0 0 2.517-6.743c.106-5.983-4.659-10.93-10.651-11.035-.182-.004-.364.01-.546.015-1.246-.13-2.469-.16-3.527-.179l-.652-.06c-4.989-.263-8.326-4.613-9.986-8.933-.11-.291-.498-.323-.668-.061-2.117 3.269-2.722 8.938-1.867 14.385h-.017s.023.09.03.132c.395 2.471 1.096 4.89 2.092 7.015.572 1.316 1.269 2.552 2.17 3.527l.032.034c.291.36.599.705.925 1.017.479.463.968.877 1.466 1.25 4.171 3.463 8.249 4.271 11.885 3.426a10.845 10.845 0 0 0 6.78-3.774s.008 0 .017-.008v-.008z"/><path fill="#005BD3" d="M102.04 53.836c.403-.77 1.286-1.176 2.43-1.354-2.392-1.713-4.12-4.463-5.18-7.202-.11-.291-.498-.323-.668-.061-2.117 3.269-2.722 8.938-1.867 14.385h-.017s.023.09.03.132c.395 2.471 1.096 4.89 2.092 7.015.572 1.316 1.269 2.552 2.17 3.527l.032.034c.291.36.599.705.925 1.017.479.463.968.877 1.466 1.25 3.576 2.973 7.088 3.986 10.318 3.68.023-.347.045-.686.043-1.025-.014-10.855-13.861-17.434-11.782-21.39l.008-.008z"/><path fill="#FFB800" d="m134.556 68.933-5.626-3.628a6.836 6.836 0 1 0-7.267 11.58l5.713 3.488a6.754 6.754 0 0 0 7.904-.625c3.443-2.938 3.08-8.363-.724-10.815z"/><path fill="#FFB800" d="M133.197 67.732s.827 0 7.44 4.546c6.613 4.547 6.612 4.96 6.612 4.96l-5.786 9.92s0 .412-5.373-2.067c-.546-.252-7.829-4.213-8.349-4.515l-1.913-1.11 7.369-11.734z"/><path fill="#FFB800" d="m134.416 68.412-5.627-3.628a6.836 6.836 0 1 0-7.267 11.58l5.714 3.489a6.753 6.753 0 0 0 7.903-.626c3.443-2.937 3.08-8.363-.723-10.815z"/></g></g><defs><filter id="b" width="203.86" height="153.86" x="6.07" y="7.626" color-interpolation-filters="sRGB" filterUnits="userSpaceOnUse"><feFlood flood-opacity="0" result="BackgroundImageFix"/><feColorMatrix in="SourceAlpha" result="hardAlpha" values="0 0 0 0 0 0 0 0 0 0 0 0 0 0 0 0 0 0 127 0"/><feOffset dy="1.556"/><feGaussianBlur stdDeviation="5.965"/><feColorMatrix values="0 0 0 0 0 0 0 0 0 0 0 0 0 0 0 0 0 0 0.09 0"/><feBlend in2="BackgroundImageFix" result="effect1_dropShadow_17_12058"/><feColorMatrix in="SourceAlpha" result="hardAlpha" values="0 0 0 0 0 0 0 0 0 0 0 0 0 0 0 0 0 0 127 0"/><feOffset dy="1.037"/><feGaussianBlur stdDeviation=".778"/><feColorMatrix values="0 0 0 0 0 0 0 0 0 0 0 0 0 0 0 0 0 0 0.12 0"/><feBlend in2="effect1_dropShadow_17_12058" result="effect2_dropShadow_17_12058"/><feBlend in="SourceGraphic" in2="effect2_dropShadow_17_12058" result="shape"/></filter><filter id="c" width="123.86" height="61.86" x="-3.93" y="70.626" color-interpolation-filters="sRGB" filterUnits="userSpaceOnUse"><feFlood flood-opacity="0" result="BackgroundImageFix"/><feColorMatrix in="SourceAlpha" result="hardAlpha" values="0 0 0 0 0 0 0 0 0 0 0 0 0 0 0 0 0 0 127 0"/><feOffset dy="1.556"/><feGaussianBlur stdDeviation="5.965"/><feColorMatrix values="0 0 0 0 0 0 0 0 0 0 0 0 0 0 0 0 0 0 0.09 0"/><feBlend in2="BackgroundImageFix" result="effect1_dropShadow_17_12058"/><feColorMatrix in="SourceAlpha" result="hardAlpha" values="0 0 0 0 0 0 0 0 0 0 0 0 0 0 0 0 0 0 127 0"/><feOffset dy="1.037"/><feGaussianBlur stdDeviation=".778"/><feColorMatrix values="0 0 0 0 0 0 0 0 0 0 0 0 0 0 0 0 0 0 0.12 0"/><feBlend in2="effect1_dropShadow_17_12058" result="effect2_dropShadow_17_12058"/><feBlend in="SourceGraphic" in2="effect2_dropShadow_17_12058" result="shape"/></filter><filter id="d" width="115.937" height="87.856" x="84.451" y="34.667" color-interpolation-filters="sRGB" filterUnits="userSpaceOnUse"><feFlood flood-opacity="0" result="BackgroundImageFix"/><feColorMatrix in="SourceAlpha" result="hardAlpha" values="0 0 0 0 0 0 0 0 0 0 0 0 0 0 0 0 0 0 127 0"/><feOffset dy="1.556"/><feGaussianBlur stdDeviation="5.965"/><feColorMatrix values="0 0 0 0 0 0 0 0 0 0 0 0 0 0 0 0 0 0 0.09 0"/><feBlend in2="BackgroundImageFix" result="effect1_dropShadow_17_12058"/><feColorMatrix in="SourceAlpha" result="hardAlpha" values="0 0 0 0 0 0 0 0 0 0 0 0 0 0 0 0 0 0 127 0"/><feOffset dy="1.037"/><feGaussianBlur stdDeviation=".778"/><feColorMatrix values="0 0 0 0 0 0 0 0 0 0 0 0 0 0 0 0 0 0 0.12 0"/><feBlend in2="effect1_dropShadow_17_12058" result="effect2_dropShadow_17_12058"/><feBlend in="SourceGraphic" in2="effect2_dropShadow_17_12058" result="shape"/></filter><clipPath id="a"><path fill="#fff" d="M8 8h200v150H8z"/></clipPath></defs></svg>