<svg xmlns="http://www.w3.org/2000/svg" width="220" height="166" fill="none"><g filter="url(#a)"><path d="M198 18H26a4 4 0 0 0-4 4v122a4 4 0 0 0 4 4h172a4 4 0 0 0 4-4V22a4 4 0 0 0-4-4z" fill="#fff"/></g><path d="M190 30H74a2 2 0 0 0-2 2v81a2 2 0 0 0 2 2h116a2 2 0 0 0 2-2V32a2 2 0 0 0-2-2z" fill="#7FBEC6"/><path d="M190 30H74a2 2 0 0 0-2 2v81a2 2 0 0 0 2 2h116a2 2 0 0 0 2-2V32a2 2 0 0 0-2-2z" fill="#7FBEC6"/><path d="M192 101.25H72v12a2 2 0 0 0 2 2h116a2 2 0 0 0 2-2v-12z" fill="#5BA7B1"/><path d="M104.727 47h61.686v68.316h-61.686V47z" fill="#906509"/><path d="M81 47h61.686v68.316H81V47z" fill="#CD992C"/><path d="M108.033 86.007h-20.92c-.902 0-1.498-.66-1.498-1.656V54.596c0-.997.596-1.656 1.498-1.656h20.92c.901 0 1.497.66 1.497 1.656v29.755c-.014.997-.61 1.656-1.497 1.656z" fill="#fff"/><path d="M94.313 56.613h-6.522v7.348h6.522v-7.348zm11.727 2.449h-8.237c-.666 0-1.317-.46-1.317-1.224 0-.613.5-1.225 1.317-1.225h8.237c.666 0 1.317.46 1.317 1.224 0 .766-.5 1.225-1.317 1.225zm1.318 13.473H87.791v9.797h19.567v-9.797z" fill="#D2D5D9"/><path d="M156.318 85.947h26.708v29.37h-26.708v-29.37z" fill="#906509"/><path d="M146.045 85.947h26.708v29.37h-26.708v-29.37z" fill="#CD992C"/><path d="M157.749 102.717h-9.058c-.39 0-.648-.284-.648-.713V89.213c0-.429.258-.712.648-.712h9.058c.39 0 .648.283.648.712v12.791c-.006.429-.264.713-.648.713z" fill="#fff"/><path d="M151.814 90.078h-2.824v3.16h2.824v-3.16zm5.072 1.053h-3.566c-.288 0-.57-.197-.57-.526 0-.264.216-.527.57-.527h3.566c.289 0 .571.198.571.527s-.217.526-.571.526zm.576 5.792h-8.472v4.213h8.472v-4.213z" fill="#D2D5D9"/><path d="M62 18H26a4 4 0 0 0-4 4v122a4 4 0 0 0 4 4h36V18z" fill="#5AB2AC"/><path d="M30 31.799c1.763 0 1.861-1.774 3.918-1.774 2.107 0 2.107 2 4.164 2 2.057 0 2.155-1.773 4.114-1.773 1.96 0 1.91 1.773 3.918 1.773s2.155-1.773 4.066-1.773c1.91 0 2.596 1.773 3.82 1.773" stroke="#fff" stroke-width="2" stroke-linecap="round" stroke-linejoin="round"/><rect x="75" y="127" width="108" height="5" rx="2.5" fill="#E8E9EB"/><rect x="75" y="137" width="68" height="5" rx="2.5" fill="#E8E9EB"/><g filter="url(#b)"><rect x="12" y="63" width="48" height="48" rx="24" fill="#fff"/></g><path d="M47.03 84.394c0 8.457-10.515 16.531-10.515 16.531S26 92.851 26 84.395C26 78.638 30.723 74 36.515 74c5.792 0 10.515 4.64 10.515 10.394z" fill="#CD5747"/><path d="M36.672 88.685a3.672 3.672 0 1 0 0-7.343 3.672 3.672 0 0 0 0 7.343z" fill="#F4F6F8"/><defs><filter id="a" x="10.07" y="7.626" width="203.86" height="153.86" filterUnits="userSpaceOnUse" color-interpolation-filters="sRGB"><feFlood flood-opacity="0" result="BackgroundImageFix"/><feColorMatrix in="SourceAlpha" values="0 0 0 0 0 0 0 0 0 0 0 0 0 0 0 0 0 0 127 0" result="hardAlpha"/><feOffset dy="1.556"/><feGaussianBlur stdDeviation="5.965"/><feColorMatrix values="0 0 0 0 0 0 0 0 0 0 0 0 0 0 0 0 0 0 0.09 0"/><feBlend in2="BackgroundImageFix" result="effect1_dropShadow_2146_65546"/><feColorMatrix in="SourceAlpha" values="0 0 0 0 0 0 0 0 0 0 0 0 0 0 0 0 0 0 127 0" result="hardAlpha"/><feOffset dy="1.037"/><feGaussianBlur stdDeviation=".778"/><feColorMatrix values="0 0 0 0 0 0 0 0 0 0 0 0 0 0 0 0 0 0 0.12 0"/><feBlend in2="effect1_dropShadow_2146_65546" result="effect2_dropShadow_2146_65546"/><feBlend in="SourceGraphic" in2="effect2_dropShadow_2146_65546" result="shape"/></filter><filter id="b" x=".07" y="52.626" width="71.86" height="71.86" filterUnits="userSpaceOnUse" color-interpolation-filters="sRGB"><feFlood flood-opacity="0" result="BackgroundImageFix"/><feColorMatrix in="SourceAlpha" values="0 0 0 0 0 0 0 0 0 0 0 0 0 0 0 0 0 0 127 0" result="hardAlpha"/><feOffset dy="1.556"/><feGaussianBlur stdDeviation="5.965"/><feColorMatrix values="0 0 0 0 0 0 0 0 0 0 0 0 0 0 0 0 0 0 0.09 0"/><feBlend in2="BackgroundImageFix" result="effect1_dropShadow_2146_65546"/><feColorMatrix in="SourceAlpha" values="0 0 0 0 0 0 0 0 0 0 0 0 0 0 0 0 0 0 127 0" result="hardAlpha"/><feOffset dy="1.037"/><feGaussianBlur stdDeviation=".778"/><feColorMatrix values="0 0 0 0 0 0 0 0 0 0 0 0 0 0 0 0 0 0 0.12 0"/><feBlend in2="effect1_dropShadow_2146_65546" result="effect2_dropShadow_2146_65546"/><feBlend in="SourceGraphic" in2="effect2_dropShadow_2146_65546" result="shape"/></filter></defs></svg>