<svg xmlns="http://www.w3.org/2000/svg" width="220" height="169" fill="none"><g filter="url(#a)"><path d="M198 18H26a4 4 0 0 0-4 4v122a4 4 0 0 0 4 4h172a4 4 0 0 0 4-4V22a4 4 0 0 0-4-4Z" fill="#fff"/></g><path d="M102 54H38a4 4 0 0 0-4 4v74a4 4 0 0 0 4 4h64a4 4 0 0 0 4-4V58a4 4 0 0 0-4-4Z" fill="#7FBEC6"/><mask id="b" maskUnits="userSpaceOnUse" x="33" y="54" width="73" height="82"><path d="M33 56.714A2.714 2.714 0 0 1 35.714 54h67.572A2.714 2.714 0 0 1 106 56.714v76.572a2.714 2.714 0 0 1-2.714 2.714H35.714A2.714 2.714 0 0 1 33 133.286V56.714Z" fill="#fff"/></mask><g mask="url(#b)" fill-rule="evenodd" clip-rule="evenodd"><path d="M108.902 91.475v25.465l-7.049 2.845v.007l-1.279.513-6.922-16.458V71.322c4.309 1.448 8.555 4.286 10.835 9.684l4.415 10.469Z" fill="#E9AF58"/><path d="M93.65 71.38v86.356H44.736v-29.687L34.5 95.699c1.502-12.266 9.607-18.192 18.977-21.27a54.688 54.688 0 0 1 3.563-1.037h.014c8.126-2.061 16.667-2.39 22.39-3.128l.622-.086s.164-.028.472-.057a30.66 30.66 0 0 1 3.534-.186c2.588 0 6.101.28 9.578 1.446" fill="#F3C348"/><path d="M34.5 128.161h10.166L34.5 95.813v32.348Z" fill="#E8E9EB"/><path d="M108.9 117.071v22.337l-4.039 14.562-2.612 3.766h-7.362l-.313-2.195 4.196-6.908 3.063-19.451a29.384 29.384 0 0 0-.017-9.242v-.007l7.084-2.862Zm-64.233 11.09v19.714l-7.49 9.861-1.107-13.184c-.423-5.027-.133-10.108 1.08-15.003a42 42 0 0 1 .368-1.388h7.149Zm35.122-74.862v.11c0 1.204-.442 2.364-1.233 3.22l-2.297 2.496-.167.182v-6.008h3.697Zm0 16.574-.43.385-21.881 3.282-1.257.547v-14.78l4.628 5.11a7.017 7.017 0 0 0 5.186 2.304h1.768a6.978 6.978 0 0 0 5.655-2.88c1.437 6.68 6.33 6.032 6.33 6.032Z" fill="#BF8563"/><path d="M80.248 69.935c-3.422 5.036-9.076 8.318-15.467 8.318-4.25 0-8.176-1.454-11.336-3.898a52.773 52.773 0 0 1 3.529-1.065h.014l9.24-1.39 12.936-1.818.617-.088s.162-.03.467-.059ZM77.478 53.3a16.12 16.12 0 0 1-1.189 5.676c-.19.488-.407.968-.656 1.435l-1.312 2.509c-.175.34-.379.65-.612.947v.007c-1.319 1.76-3.44 2.827-5.737 2.827h-1.794a7.23 7.23 0 0 1-5.263-2.261l-4.694-5.019V53.3h21.257Z" fill="#DEAC90"/><path d="M52.984 53.3h3.235v3.234l-2.647-2.533a3.974 3.974 0 0 1-.588-.702" fill="#BF8563"/><path d="M63.152 59.245s2.151-2.056 4.201-1.044c2.185-.613 2.767.614 3.193 1.35-2.147 2.358-6.92.457-7.394-.306" fill="#AD4536"/><path d="m56.22 88.969 24.03-3.322v28.101l-24.03 3.322V88.969Z" fill="#5BA7B1"/><path d="M80.25 85.647v14.533l-7.685 9.034-6.609-7.765 2.51-3.359H63.22a25.609 25.609 0 0 1-4.227-9.484l21.257-2.959Z" fill="#005C44"/><path d="m73.78 114.467-8.944 1.216a17.346 17.346 0 0 1-1.025-.915l-2.612-2.561 2.312-2.268h-4.633l-.908-.88 1.611-1.573h-3.214l-.146-.144v-5.522c1.838.036 4.122.372 6.741 1.338a17.805 17.805 0 0 1 10.819 11.309Z" fill="#00735C"/></g><rect x="115" y="59" width="48" height="6" rx="3" fill="#B6BABF"/><rect x="115" y="78" width="75" height="4" rx="2" fill="#E8E9EB"/><rect x="115" y="89" width="62" height="4" rx="2" fill="#E8E9EB"/><rect x="115" y="105" width="40" height="12" rx="2" fill="#00996E"/><path d="M198 18H26a4 4 0 0 0-4 4v20h180V22a4 4 0 0 0-4-4Z" fill="#399C97"/><path d="M34 30.774c1.763 0 1.861-1.774 3.918-1.774 2.106 0 2.106 2 4.164 2 2.057 0 2.155-1.774 4.114-1.774S48.106 31 50.114 31s2.155-1.774 4.066-1.774C56.09 29.226 56.776 31 58 31" fill="#399C97"/><path d="M34 30.774c1.763 0 1.861-1.774 3.918-1.774 2.106 0 2.106 2 4.164 2 2.057 0 2.155-1.774 4.114-1.774S48.106 31 50.114 31s2.155-1.774 4.066-1.774C56.09 29.226 56.776 31 58 31" stroke="#fff" stroke-width="2" stroke-linecap="round" stroke-linejoin="round"/><g filter="url(#c)"><path d="M14 95a2 2 0 0 0-2 2v57.525a.2.2 0 0 0 .34.143l2.35-2.295a.5.5 0 0 1 .73.034l1.834 2.148a.5.5 0 0 0 .76 0l1.8-2.11a.501.501 0 0 1 .761 0l1.8 2.11c.2.233.562.233.761 0l1.8-2.11a.502.502 0 0 1 .761 0l1.8 2.11c.2.233.562.233.761 0l1.8-2.11a.501.501 0 0 1 .761 0l1.8 2.11c.2.233.562.233.761 0l1.8-2.11a.501.501 0 0 1 .761 0l1.8 2.11c.2.233.562.233.761 0l1.8-2.11a.501.501 0 0 1 .761 0l1.8 2.11c.2.233.562.233.761 0l1.8-2.11a.501.501 0 0 1 .761 0l1.8 2.11c.2.233.562.233.761 0l1.834-2.148a.5.5 0 0 1 .73-.034l2.35 2.295a.2.2 0 0 0 .34-.143V97a2 2 0 0 0-2-2H14Z" fill="#fff"/></g><path d="M32 140.219a.781.781 0 0 0 0 1.562v-1.562Zm16 1.562a.781.781 0 0 0 0-1.562v1.562ZM32 141v.781h5.297v-1.562H32V141Zm5.297.781c1.188 0 2.13-.363 2.736-1.042.604-.677.772-1.553.64-2.365-.261-1.598-1.713-3.155-3.842-3.155v1.562c1.305 0 2.152.943 2.3 1.845.07.438-.03.812-.263 1.073-.231.258-.694.52-1.571.52v1.562Zm-.466-6.562c-.53 0-1.082.073-1.476.376a1.187 1.187 0 0 0-.452.709c-.058.28-.007.54.07.747.145.397.448.768.77 1.086.338.334.763.675 1.24 1.005.953.66 2.163 1.313 3.41 1.804 1.236.486 2.565.835 3.743.835v-1.562c-.903 0-2.026-.276-3.172-.727a15.707 15.707 0 0 1-3.091-1.634 7.869 7.869 0 0 1-1.03-.831c-.271-.267-.378-.444-.405-.516-.01-.027.013.018-.005.108a.377.377 0 0 1-.128.216c-.038.029.06-.054.526-.054v-1.562Zm7.305 6.562H48v-1.562h-3.864v1.562Z" fill="#336FB2"/><path d="M21 107.223c1.668 0 1.76-2.223 3.707-2.223 1.992 0 1.992 2.507 3.938 2.507 1.946 0 2.039-2.223 3.892-2.223 1.854 0 1.807 2.223 3.707 2.223s2.039-2.223 3.846-2.223 2.456 2.223 3.614 2.223" stroke="#828A91" stroke-width="1.562" stroke-linecap="round" stroke-linejoin="round"/><rect x="17" y="118" width="18" height="4" rx="2" fill="#D2D5D9"/><rect x="17" y="126" width="18" height="4" rx="2" fill="#D2D5D9"/><rect x="41" y="118" width="7" height="4" rx="2" fill="#D2D5D9"/><rect x="41" y="126" width="7" height="4" rx="2" fill="#D2D5D9"/><rect x="17" y="138" width="7" height="4" rx="2" fill="#828A91"/><defs><filter id="a" x="10.07" y="7.626" width="203.86" height="153.86" filterUnits="userSpaceOnUse" color-interpolation-filters="sRGB"><feFlood flood-opacity="0" result="BackgroundImageFix"/><feColorMatrix in="SourceAlpha" values="0 0 0 0 0 0 0 0 0 0 0 0 0 0 0 0 0 0 127 0" result="hardAlpha"/><feOffset dy="1.556"/><feGaussianBlur stdDeviation="5.965"/><feColorMatrix values="0 0 0 0 0 0 0 0 0 0 0 0 0 0 0 0 0 0 0.09 0"/><feBlend in2="BackgroundImageFix" result="effect1_dropShadow_2379_65496"/><feColorMatrix in="SourceAlpha" values="0 0 0 0 0 0 0 0 0 0 0 0 0 0 0 0 0 0 127 0" result="hardAlpha"/><feOffset dy="1.037"/><feGaussianBlur stdDeviation=".778"/><feColorMatrix values="0 0 0 0 0 0 0 0 0 0 0 0 0 0 0 0 0 0 0.12 0"/><feBlend in2="effect1_dropShadow_2379_65496" result="effect2_dropShadow_2379_65496"/><feBlend in="SourceGraphic" in2="effect2_dropShadow_2379_65496" result="shape"/></filter><filter id="c" x=".07" y="84.626" width="65.86" height="83.59" filterUnits="userSpaceOnUse" color-interpolation-filters="sRGB"><feFlood flood-opacity="0" result="BackgroundImageFix"/><feColorMatrix in="SourceAlpha" values="0 0 0 0 0 0 0 0 0 0 0 0 0 0 0 0 0 0 127 0" result="hardAlpha"/><feOffset dy="1.556"/><feGaussianBlur stdDeviation="5.965"/><feColorMatrix values="0 0 0 0 0 0 0 0 0 0 0 0 0 0 0 0 0 0 0.09 0"/><feBlend in2="BackgroundImageFix" result="effect1_dropShadow_2379_65496"/><feColorMatrix in="SourceAlpha" values="0 0 0 0 0 0 0 0 0 0 0 0 0 0 0 0 0 0 127 0" result="hardAlpha"/><feOffset dy="1.037"/><feGaussianBlur stdDeviation=".778"/><feColorMatrix values="0 0 0 0 0 0 0 0 0 0 0 0 0 0 0 0 0 0 0.12 0"/><feBlend in2="effect1_dropShadow_2379_65496" result="effect2_dropShadow_2379_65496"/><feBlend in="SourceGraphic" in2="effect2_dropShadow_2379_65496" result="shape"/></filter></defs></svg>